<?xml version="1.0" encoding="UTF-8"?>
<svg id="Capa_1" data-name="Capa 1" xmlns="http://www.w3.org/2000/svg" xmlns:xlink="http://www.w3.org/1999/xlink" viewBox="0 0 512 512">
  <defs>
    <style>
      .cls-1 {
        fill: url(#linear-gradient);
      }

      .cls-2 {
        fill: url(#linear-gradient-2);
      }
    </style>
    <linearGradient id="linear-gradient" x1="220.28" y1="384.21" x2="354.02" y2="-22.03" gradientTransform="translate(.18 514.2) scale(1 -1)" gradientUnits="userSpaceOnUse">
      <stop offset="0" stop-color="#1ddcfd"/>
      <stop offset="1" stop-color="#6b72ff"/>
    </linearGradient>
    <linearGradient id="linear-gradient-2" x1="376.68" y1="244.06" x2="376.68" y2="514.07" gradientTransform="translate(.18 514.2) scale(1 -1)" gradientUnits="userSpaceOnUse">
      <stop offset="0" stop-color="#a0dbff"/>
      <stop offset="1" stop-color="#d0edff"/>
    </linearGradient>
  </defs>
  <path class="cls-1" d="m278.83,103.83v60.02h180.05v-60.02h-180.05Zm128.92,284.99l-76.4-50.95c-17.76-11.82-41.66-9.47-56.78,5.64l-20.1,20.09c-11.79-1.7-39.84-8.72-68.6-37.48s-35.78-56.81-37.48-68.6l20.09-20.1c15.11-15.11,17.48-38.99,5.63-56.79l-50.93-76.38c-7.52-11.27-19.55-18.49-33.03-19.82-13.48-1.32-26.68,3.4-36.25,12.97l-31.84,31.82C6.9,144.37-1.1,165.09.13,186.06c2.4,40.82,20.09,122.95,111.47,214.33,91.4,91.39,173.51,109.07,214.33,111.47,20.53,1.28,41.49-6.56,56.84-21.93l31.84-31.84c9.57-9.57,14.3-22.78,12.97-36.25-1.33-13.48-8.56-25.51-19.82-33.03Z"/>
  <path class="cls-2" d="m376.96,0c-74.42,0-135.03,60.32-135.03,135.03,0,23.11,6,45.61,17.4,65.72l-16.5,49.51c-1.8,5.4-.3,11.4,3.6,15.3,4.45,4.01,9.99,5.72,15.3,3.6l49.51-16.51c20.1,11.4,42.61,17.41,65.72,17.41,74.72,0,135.03-60.62,135.03-135.03S451.67,0,376.96,0h0Zm-60.02,150.04c-8.1,0-15-6.9-15-15s6.9-15,15-15,15,6.6,15,15-6.6,15-15,15Zm60.02,0c-8.1,0-15-6.9-15-15s6.9-15,15-15,15,6.6,15,15-6.6,15-15,15Zm60.02,0c-8.1,0-15-6.9-15-15s6.9-15,15-15,15,6.6,15,15-6.6,15-15,15Z"/>
</svg>